<svg width="110" height="111" viewBox="0 0 110 111" fill="none" xmlns="http://www.w3.org/2000/svg">
<path d="M19.5872 27.4219H18.8317L19.1269 28.1172L30.7999 55.6172L30.9292 55.9219H31.2602H68.7506C70.417 55.9219 71.8974 55.1195 72.8197 53.8768C72.8201 53.8763 72.8204 53.8759 72.8207 53.8754L86.2667 35.9468L86.2718 35.9507L86.5737 35.5471C87.2081 34.6989 87.584 33.6452 87.584 32.5053C87.584 29.6978 85.3082 27.4219 82.5006 27.4219H19.5872ZM31.4675 59.5052H31.1556L31.0184 59.7854L27.5162 66.939L27.491 66.9905L27.4781 67.0464L27.0135 69.0594L27.0006 69.1149V69.1719C27.0006 71.9794 29.2765 74.2552 32.084 74.2552H82.0006V77.8385H32.084C27.2975 77.8385 23.4173 73.9585 23.4173 69.1719C23.4173 67.6465 23.8111 66.2141 24.502 64.9702L24.5085 64.9586L24.5143 64.9466L27.8112 58.1871L27.9111 57.9823L27.822 57.7725L11.1772 18.5598L11.0479 18.2552H10.717H5.08398V14.6719L13.4197 14.6719L17.1814 23.5339L17.3107 23.8385H17.6416H82.5006C87.2872 23.8386 91.1673 27.7188 91.1673 32.5053C91.1673 34.5748 90.4426 36.4737 89.2327 37.964L89.2266 37.9715L89.2208 37.9792L75.8636 55.792L75.8588 55.7985L75.8541 55.8051C74.2864 58.0431 71.6891 59.5052 68.7506 59.5052H31.4675ZM73.334 83.4219C78.1206 83.4219 82.0006 87.3019 82.0006 92.0885C82.0006 96.8751 78.1206 100.755 73.334 100.755C68.5474 100.755 64.6673 96.8751 64.6673 92.0885C64.6673 87.3019 68.5474 83.4219 73.334 83.4219ZM73.334 87.0052C70.5265 87.0052 68.2506 89.281 68.2506 92.0885C68.2506 94.896 70.5265 97.1719 73.334 97.1719C76.1415 97.1719 78.4173 94.896 78.4173 92.0885C78.4173 89.281 76.1415 87.0052 73.334 87.0052ZM32.084 83.4219C36.8705 83.4219 40.7506 87.3019 40.7506 92.0885C40.7506 96.8751 36.8705 100.755 32.084 100.755C27.2975 100.755 23.4173 96.8751 23.4173 92.0885C23.4173 87.3019 27.2975 83.4219 32.084 83.4219ZM32.084 87.0052C29.2765 87.0052 27.0006 89.281 27.0006 92.0885C27.0006 94.8961 29.2765 97.1719 32.084 97.1719C34.8914 97.1719 37.1673 94.8961 37.1673 92.0885C37.1673 89.281 34.8914 87.0052 32.084 87.0052Z" fill="white" stroke="white"/>
</svg>
